<?xml version="1.0" encoding="UTF-8" standalone="no"?>
<!DOCTYPE svg PUBLIC "-//W3C//DTD SVG 1.1//EN" "http://www.w3.org/Graphics/SVG/1.1/DTD/svg11.dtd">
<svg version="1.1" xmlns="http://www.w3.org/2000/svg" xmlns:xlink="http://www.w3.org/1999/xlink" preserveAspectRatio="xMidYMid meet" viewBox="0 0 350 600" width="350" height="600"><defs><path d="M52.13 50.36L299.29 50.36L299.29 450.36L52.13 450.36L52.13 50.36Z" id="a1doAAslh2"></path><mask id="maskj1HcPMZP2Z" x="-47.87" y="-49.64" width="447.16" height="600" maskUnits="userSpaceOnUse"><rect x="-47.87" y="-49.64" width="447.16" height="600" fill="white"></rect><use xlink:href="#a1doAAslh2" opacity="1" fill="black"></use></mask><path d="M77.13 361.88L273.13 361.88L273.13 411.88L77.13 411.88L77.13 361.88Z" id="f1xpLLD6AH"></path><path d="M77.13 75.29L273.13 75.29L273.13 125.29L77.13 125.29L77.13 75.29Z" id="b179JsfjIY"></path><path d="M77.72 150.31L273.71 150.31L273.71 200.31L77.72 200.31L77.72 150.31Z" id="cuRKEy06A"></path><path d="M180.35 305.17L180.35 305.17L163.39 320.67L131.97 291.97L148.93 276.47L163.38 289.67L206.5 250.29L223.46 265.78L180.35 305.17Z" id="a5by0PXdOB"></path></defs><g><g><g><g mask="url(#maskj1HcPMZP2Z)"><use xlink:href="#a1doAAslh2" opacity="1" fill-opacity="0" stroke="#000000" stroke-width="100" stroke-opacity="1"></use></g></g><g><use xlink:href="#f1xpLLD6AH" opacity="1" fill="#000000" fill-opacity="1"></use></g><g><use xlink:href="#b179JsfjIY" opacity="1" fill="#000000" fill-opacity="1"></use></g><g><use xlink:href="#cuRKEy06A" opacity="1" fill="#000000" fill-opacity="1"></use></g><g><use xlink:href="#a5by0PXdOB" opacity="1" fill="#000000" fill-opacity="0.89"></use></g></g></g></svg>