<?xml version="1.0" standalone="no"?>
<!DOCTYPE svg PUBLIC "-//W3C//DTD SVG 20010904//EN"
 "http://www.w3.org/TR/2001/REC-SVG-20010904/DTD/svg10.dtd">
<svg version="1.0" xmlns="http://www.w3.org/2000/svg"
 width="1881.000000pt" height="520.000000pt" viewBox="0 0 1881.000000 520.000000"
 preserveAspectRatio="xMidYMid meet">
<metadata>
Created by potrace 1.15, written by Peter Selinger 2001-2017
</metadata>
<g transform="translate(0.000000,520.000000) scale(0.100000,-0.100000)"
fill="#000000" stroke="none">
<path d="M20 2700 l0 -2500 1735 0 1735 0 0 2500 0 2500 -1735 0 -1735 0 0
-2500z m2970 0 l0 -2000 -1235 0 -1235 0 0 2000 0 2000 1235 0 1235 0 0 -2000z"/>
<path d="M770 4200 l0 -250 980 0 980 0 0 250 0 250 -980 0 -980 0 0 -250z"/>
<path d="M780 3450 l0 -250 980 0 980 0 0 250 0 250 -980 0 -980 0 0 -250z"/>
<path d="M1850 2500 l-215 -198 -72 65 -73 65 -57 -50 c-78 -68 -106 -99 -99
-110 3 -5 72 -70 154 -144 l148 -136 125 117 c69 64 201 186 295 271 93 85
170 157 172 160 1 4 -35 40 -80 82 l-83 75 -215 -197z"/>
<path d="M770 1330 l0 -250 980 0 980 0 0 250 0 250 -980 0 -980 0 0 -250z"/>
<path d="M4030 2685 l0 -745 105 0 105 0 0 640 0 641 528 -3 c526 -3 527 -3
577 -26 66 -30 138 -103 166 -166 33 -75 32 -182 -2 -256 -34 -74 -76 -120
-141 -156 l-53 -29 -475 -5 -475 -5 -3 -102 -3 -103 469 0 c388 0 478 3 527
15 227 60 396 281 395 519 -1 233 -173 450 -406 511 -49 13 -155 15 -686 15
l-628 0 0 -745z"/>
<path d="M9020 2685 l0 -745 105 0 105 0 0 640 0 640 665 0 665 0 0 105 0 105
-770 0 -770 0 0 -745z"/>
<path d="M16600 2685 l0 -745 105 0 105 0 0 745 0 745 -105 0 -105 0 0 -745z"/>
<path d="M17010 3325 l0 -105 380 0 380 0 0 -640 0 -640 105 0 105 0 0 640 0
640 375 0 375 0 0 105 0 105 -860 0 -860 0 0 -105z"/>
<path d="M7537 3113 c-4 -3 -7 -269 -7 -590 l0 -583 615 0 616 0 -3 108 -3
107 -502 3 -503 2 0 370 0 370 505 0 506 0 -3 108 -3 107 -606 3 c-333 1 -609
-1 -612 -5z"/>
<path d="M5940 2525 l0 -585 110 0 110 0 0 480 0 480 370 0 c312 0 376 -2 408
-16 173 -72 177 -316 7 -395 -36 -17 -70 -19 -357 -19 l-318 0 0 -105 0 -105
213 0 213 0 169 -160 168 -160 143 0 143 0 -169 166 -169 166 68 34 c85 42
152 112 194 202 30 63 32 74 32 177 0 99 -3 116 -28 169 -55 119 -146 199
-266 236 -59 19 -93 20 -552 20 l-489 0 0 -585z"/>
<path d="M11093 3096 c-90 -22 -164 -65 -239 -140 -116 -116 -167 -248 -167
-431 1 -287 164 -511 415 -570 90 -21 527 -21 617 0 197 47 349 209 397 421
23 104 16 273 -15 364 -63 180 -199 309 -376 355 -76 19 -551 20 -632 1z m643
-228 c107 -56 172 -168 182 -309 11 -174 -60 -313 -193 -379 -49 -25 -53 -25
-315 -25 l-265 0 -57 28 c-68 33 -121 90 -156 166 -21 45 -27 75 -30 156 -6
154 36 258 134 334 74 57 100 61 389 58 l260 -2 51 -27z"/>
<path d="M12370 2525 l0 -585 110 0 110 0 0 480 0 480 370 0 c312 0 376 -2
408 -16 173 -72 177 -316 7 -395 -36 -17 -70 -19 -357 -19 l-318 0 0 -105 0
-105 213 0 213 0 169 -160 168 -160 144 0 143 0 -169 166 -170 166 69 34 c83
42 150 112 194 204 29 60 31 73 31 175 0 103 -2 114 -31 176 -55 115 -143 192
-265 230 -56 18 -98 19 -550 19 l-489 0 0 -585z"/>
<path d="M13960 2526 l0 -586 110 0 110 0 0 480 0 480 60 0 c159 0 302 -105
350 -259 18 -58 20 -91 20 -382 l0 -319 105 0 105 0 0 294 c0 161 5 317 10
346 34 182 174 310 347 319 l73 3 0 -481 0 -481 105 0 c58 0 105 3 105 8 0 13
0 1137 0 1150 0 19 -318 17 -395 -3 -109 -28 -200 -80 -281 -162 -41 -41 -74
-71 -74 -66 0 18 -113 124 -168 157 -114 68 -164 80 -384 84 l-198 4 0 -586z"/>
<path d="M9340 2685 l0 -105 520 0 520 0 0 105 0 105 -520 0 -520 0 0 -105z"/>
<path d="M7850 2535 l0 -105 385 0 385 0 0 105 0 105 -385 0 -385 0 0 -105z"/>
</g>
</svg>
